inDegrees=no
num_controls=7
num_derivatives=13
num_iterations=86
num_multipliers=7
num_parameters=0
num_slacks=7
num_states=26
objective=0.454578
objective_accelerations=0.044860
objective_balance=0.000823
objective_effort=0.036520
objective_height=0.366250
objective_ligament=0.006125
solver_duration=1138.907888
status=Solve_Succeeded
success=true
DataType=double
version=3
OpenSimVersion=4.5
endheader
time	/jointset/ground_pelvis/pelvis_tilt/value	/jointset/ground_pelvis/pelvis_tx/value	/jointset/ground_pelvis/pelvis_ty/value	/jointset/hip_r/hip_flexion_r/value	/jointset/hip_r/hip_adduction_r/value	/jointset/hip_r/hip_rotation_r/value	/jointset/back/lumbar_extension/value	/jointset/patellofemoral_r/patellar_flexion_r/value	/jointset/knee_r/knee_flexion_r/value	/jointset/knee_r/knee_adduction_r/value	/jointset/knee_r/knee_rotation_r/value	/jointset/ankle_r/ankle_angle_r/value	/jointset/subtalar_r/subtalar_angle_r/value	/jointset/ground_pelvis/pelvis_tilt/speed	/jointset/ground_pelvis/pelvis_tx/speed	/jointset/ground_pelvis/pelvis_ty/speed	/jointset/hip_r/hip_flexion_r/speed	/jointset/hip_r/hip_adduction_r/speed	/jointset/hip_r/hip_rotation_r/speed	/jointset/back/lumbar_extension/speed	/jointset/patellofemoral_r/patellar_flexion_r/speed	/jointset/knee_r/knee_flexion_r/speed	/jointset/knee_r/knee_adduction_r/speed	/jointset/knee_r/knee_rotation_r/speed	/jointset/ankle_r/ankle_angle_r/speed	/jointset/subtalar_r/subtalar_angle_r/speed	/forceset/tau_hip_flexion_r	/forceset/tau_hip_adduction_r	/forceset/tau_hip_rotation_r	/forceset/tau_knee_flexion_r	/forceset/tau_ankle_angle_r	/forceset/tau_subtalar_angle_r	/forceset/tau_lumbar_extension	lambda_cid13_p0	lambda_cid14_p0	lambda_cid14_p1	lambda_cid14_p2	lambda_cid14_p3	lambda_cid14_p4	lambda_cid14_p5	/jointset/ground_pelvis/pelvis_tilt/accel	/jointset/ground_pelvis/pelvis_tx/accel	/jointset/ground_pelvis/pelvis_ty/accel	/jointset/hip_r/hip_flexion_r/accel	/jointset/hip_r/hip_adduction_r/accel	/jointset/hip_r/hip_rotation_r/accel	/jointset/back/lumbar_extension/accel	/jointset/patellofemoral_r/patellar_flexion_r/accel	/jointset/knee_r/knee_flexion_r/accel	/jointset/knee_r/knee_adduction_r/accel	/jointset/knee_r/knee_rotation_r/accel	/jointset/ankle_r/ankle_angle_r/accel	/jointset/subtalar_r/subtalar_angle_r/accel	gamma_cid13_p0	gamma_cid14_p0	gamma_cid14_p1	gamma_cid14_p2	gamma_cid14_p3	gamma_cid14_p4	gamma_cid14_p5
1.5	-0.06354000166671847	0.04036555899971739	0.8239592595157728	0.7641763966945375	-0.2526679029497452	-0.05886417942542017	-0.6228777986655271	0.9254457406312219	0.9254457406312249	0.06605350590040959	0.1742439965180981	0.2994669543736269	0.09332981518118363	0.4079417205816953	0.2078501543027643	0.471170341310001	-1.881368139271741	0.03728199554360524	-0.5021459179134957	0.795474020230188	-1.915796230691607	-1.915796230691602	0.1028372835709538	0.002673671946180563	-0.5224599239992622	-0.1131589541635732	-0.1464109728554747	-0.003286820346009574	0.03565867310683606	-0.3139183217680971	0.01551308939014451	-0.01648736333900216	0.205146365605648	-9.496268593084537	-38.04350223784966	-12.81936377470773	1.320891871160811	-2.784933419053401	-634.3099716880255	60.61738668811731	0.03796735988581752	0.514920891129214	-0.4461315438847714	-0.9123228085541556	0.1981688443527042	-0.1607368629639516	1.720582535550056	-1.396311354380727	-1.396311354380727	0.4968700048167983	-0.01367826693328406	-0.5728624574479653	0.1877249404141539	8.935932254033199e-08	2.409672382673014e-09	-1.495237347163752e-06	1.904780011000495e-07	1.508718998982308e-07	1.703150612320473e-07	-1.003915644272553e-06
1.51	-0.05945896142850696	0.04246961334662203	0.8286477039552679	0.7453190467510954	-0.2522857690593849	-0.06389365395731783	-0.6148383597288781	0.9062203869128832	0.9062203869128811	0.06710760371078946	0.1742712125360876	0.2942143047036639	0.09220683772611143	0.4082122417135283	0.2129381801252976	0.4664199678424995	-1.889858361484268	0.03913054902574328	-0.503681349712063	0.8123079917849755	-1.929006943467898	-1.929006943467899	0.1080217339599671	0.002762763720644209	-0.5279879792154386	-0.1114373861449588	-0.1397577524552842	-0.004928985348375282	0.03492020104584876	-0.3099615972160858	0.01732415410016556	-0.01681660395771262	0.1989493775455014	-10.51492759149492	-37.19380464446886	-12.67044383504975	1.133657592367397	-2.956736187605693	-629.8938926507275	60.54060263131272	0.01348291006293305	0.5023827725693727	-0.5042438347629591	-0.7808462685200335	0.1760354767614621	-0.1396688297010453	1.648938168252265	-1.243333897677387	-1.243333897678147	0.5349999763323648	0.01922424696326994	-0.5304411770491432	0.1641119515079451	9.006153414223741e-08	1.85155835136325e-08	-1.238332185625335e-06	2.90586718524103e-07	1.159358719192221e-07	1.675509544994325e-07	-8.333226152917007e-07
1.52	-0.05537683829493117	0.04462387582070283	0.8332856939427721	0.7263840997173449	-0.2518855822588791	-0.06893642730548087	-0.6066337543361194	0.8868709495350977	0.8868709495350902	0.06821469950914687	0.1742991237412822	0.2889088416568694	0.09110102379501005	0.4081582996545961	0.2178917797380022	0.4610794509117914	-1.896887557333516	0.04089257757256463	-0.5048056811665461	0.8285073114521279	-1.940612962581152	-1.940612962581157	0.1134368811645287	0.002812709388189922	-0.533022599365483	-0.1097262493694291	-0.13310453205509	-0.006571150350736756	0.03418172898482805	-0.3060048726640746	0.01913521881018765	-0.01714584457641568	0.1927523894853571	-11.53619222565314	-36.34637906221073	-12.52057815975575	0.9447374255857631	-3.136559874644993	-625.5054162523346	60.50142832360238	-0.02692527826718003	0.4880356491634832	-0.5641602365260984	-0.620117535898438	0.1808638572893747	-0.07851679414706909	1.593652158023052	-1.075372621773147	-1.075372621773147	0.543009367926451	-0.02150748831688029	-0.4741754442216408	0.1856386917972082	9.451126285217889e-08	3.140891658258164e-08	-1.103005382026089e-06	3.77048584172852e-07	9.517226560728065e-08	1.720905223887059e-07	-7.481151691653266e-07
1.53	-0.05129693002644214	0.04682694483127249	0.8378673814982434	0.7073862532137173	-0.2514682239013231	-0.07398837925787963	-0.5982703795274191	0.8674135419632873	0.8674135419632835	0.06937708861565041	0.174327261397223	0.2835555242876529	0.09001226163483021	0.4077648078938271	0.2226934457858531	0.4551649785057836	-1.902427163595235	0.0425672247551798	-0.5055306054997617	0.844054530077114	-1.950591355007107	-1.950591355007112	0.1190571904738558	0.002806539410500624	-0.5375537276089168	-0.1080215921436331	-0.1264590040844258	-0.008280415370527738	0.03342251420914974	-0.3021355617917478	0.02088978434227728	-0.01751007396244816	0.1865566240071417	-12.55707760434465	-35.53478847207208	-12.39434372736225	0.7620538196888128	-3.259769313568456	-621.3201844654935	60.45965819923678	-0.05433978885454191	0.4719628765531372	-0.6190147991590215	-0.4826901437016614	0.1589745424484299	-0.06121658707363324	1.51828868311373	-0.9175145282468131	-0.9175145282468647	0.5738325131122054	0.008652967640461072	-0.4294787061763525	0.1634535055214625	1.029427284894087e-07	4.088888546064486e-08	-1.096855583737214e-06	4.490106698103402e-07	8.946685731659809e-08	1.843902445637356e-07	-7.536299048218342e-07
1.54	-0.04722271240833534	0.04907717666111217	0.8423871395183506	0.6883406490529944	-0.2510344771931998	-0.07904592772044412	-0.5897549261387934	0.8478646620721701	0.847864662072169	0.07059613897538797	0.1743551022974103	0.2781595161976475	0.08894066090041855	0.4070201695781457	0.2273243435920053	0.4486935438389401	-1.906439088752676	0.04417024768582854	-0.5059249831995697	0.8589230274371921	-1.95890742644267	-1.958907426442676	0.1247691318102355	0.002753358238226908	-0.5415607435232355	-0.1062939642158097	-0.1198134761137591	-0.009989680390317392	0.03266329943345346	-0.2982662509194209	0.02264434987436708	-0.01787430334847827	0.1803608585289281	-13.57356605295822	-34.72585184071728	-12.26715470902072	0.5775963016524415	-3.390115997822571	-617.1688050755698	60.45993706141437	-0.09715458924963447	0.4538820008237194	-0.6755526886932384	-0.3145813150428892	0.1665390068960982	-0.0124074674655303	1.457907905041486	-0.742908423694922	-0.7429084236949222	0.5613357733369609	-0.03090972723377655	-0.3693529783986156	0.1902328322027016	1.117195901132572e-07	5.10774984791315e-08	-1.098798840284932e-06	5.224828608071977e-07	8.367254394113008e-08	2.000436235997486e-07	-7.669475228963299e-07
1.55	-0.04315767695758367	0.05137281294829852	0.846839470840587	0.6692625463023644	-0.2505851464127666	-0.084105611712917	-0.581094361376601	0.8282409850088804	0.8282409850088812	0.07187299888030416	0.1743821236911314	0.272726067013134	0.08788632718791878	0.4059272876596435	0.2317688135299139	0.4416860902676155	-1.908919765030312	0.04568028368279922	-0.5059538686036373	0.8730611919560995	-1.96553948187709	-1.965539481877092	0.1306190914927365	0.002640228510670055	-0.5450373014036961	-0.1045723785941775	-0.1131101553394307	-0.0117863279690238	0.03189164700877865	-0.2946172048612825	0.02453351055286918	-0.01832059925901788	0.1741247261214333	-14.58232839611625	-33.89533898156497	-12.17899431461958	0.4075457967666268	-3.509057956795806	-613.2434552590638	60.43868355603065	-0.1242949408553078	0.4346293429165722	-0.7262901616634726	-0.1755487507565557	0.1408980936301018	0.01073119020163132	1.372460768540418	-0.5801036509015233	-0.5801036509009901	0.5991164673363421	-0.00302065476809018	-0.3230068218841465	0.1630813256862909	1.208944079825577e-07	6.20825927898451e-08	-1.110066703492205e-06	5.976949558050675e-07	7.777579644623541e-08	2.195609985842859e-07	-7.892554185393766e-07
